<?xml version="1.0" standalone="no"?>
<!DOCTYPE svg PUBLIC "-//W3C//DTD SVG 20010904//EN"
 "http://www.w3.org/TR/2001/REC-SVG-20010904/DTD/svg10.dtd">
<svg version="1.0" xmlns="http://www.w3.org/2000/svg"
 width="240.000000pt" height="245.000000pt" viewBox="0 0 240.000000 245.000000"
 preserveAspectRatio="xMidYMid meet">

<g transform="translate(0.000000,245.000000) scale(0.100000,-0.100000)"
fill="#000000" stroke="none">
<path d="M1115 2339 c-151 -16 -327 -78 -459 -163 -35 -23 -54 -41 -50 -48 5
-7 2 -9 -9 -5 -19 7 -44 -18 -27 -28 6 -3 8 -11 5 -16 -4 -5 -2 -9 3 -9 5 0
14 11 20 25 6 14 16 25 22 25 15 0 12 -17 -5 -24 -8 -3 -15 -14 -15 -25 0 -12
-9 -21 -25 -25 -14 -4 -25 -11 -25 -16 0 -14 -27 -12 -36 2 -5 7 -2 9 9 5 11
-4 14 -2 11 8 -4 10 1 12 18 8 22 -6 22 -5 5 14 -9 11 -14 24 -10 29 5 5 -2 0
-14 -10 -13 -10 -20 -23 -16 -29 3 -5 1 -7 -5 -3 -11 7 -113 -94 -163 -161
l-31 -43 29 0 c15 -1 228 -2 471 -3 l444 -2 19 -24 c22 -27 18 -57 -13 -83
-19 -17 -58 -18 -518 -18 -386 0 -500 -3 -508 -12 -16 -22 -79 -191 -87 -234
l-6 -41 82 19 c71 17 89 18 126 7 66 -18 102 -70 94 -136 -1 -6 3 -14 9 -18 5
-3 10 -15 10 -25 0 -27 14 -32 65 -24 35 5 45 11 45 25 0 23 54 85 91 105 21
10 59 13 149 12 66 -2 120 -5 120 -8 0 -8 -141 -134 -173 -154 -33 -22 -108
-25 -158 -6 -32 12 -47 10 -135 -13 -83 -21 -92 -25 -58 -26 48 -1 114 -44
143 -92 11 -17 25 -61 31 -98 7 -36 19 -79 27 -94 20 -40 10 -44 -27 -14 -17
15 -50 31 -73 37 -97 24 -118 32 -147 56 -40 34 -56 66 -69 138 -6 33 -13 61
-15 63 -2 2 -42 -6 -89 -18 l-85 -21 5 -37 c8 -61 42 -187 68 -258 27 -71 119
-233 159 -280 l23 -26 99 90 c54 50 221 213 369 363 149 149 282 278 297 286
35 18 79 18 125 -1 22 -9 127 -105 272 -248 212 -208 458 -441 503 -475 14
-11 22 -5 61 50 110 155 176 335 192 524 l6 72 -59 -13 c-32 -6 -64 -15 -70
-19 -6 -4 -16 -34 -23 -67 -19 -95 -48 -122 -175 -158 -38 -10 -78 -23 -89
-27 -19 -8 -19 -7 2 19 11 15 24 46 27 70 12 81 68 140 146 153 64 10 65 14
10 40 l-55 25 -25 -29 c-14 -16 -37 -45 -52 -65 -36 -46 -94 -64 -231 -70
-104 -5 -107 -4 -77 12 17 9 47 38 68 65 56 74 96 91 216 90 l99 0 -44 38
c-24 21 -61 50 -81 64 -36 26 -40 26 -108 16 -101 -15 -132 -4 -207 74 -34 35
-78 74 -97 88 l-35 23 117 7 c180 10 236 -13 282 -117 13 -29 35 -56 58 -72
43 -30 52 -31 52 -7 1 9 8 35 16 57 9 22 20 66 24 99 4 32 17 71 27 85 21 29
116 80 151 81 30 0 28 16 -13 84 -150 250 -346 424 -576 514 -161 63 -309 86
-454 71z m73 -16 c-15 -2 -42 -2 -60 0 -18 2 -6 4 27 4 33 0 48 -2 33 -4z
m-138 -23 c11 -8 9 -9 -12 -8 -16 1 -28 6 -28 10 0 11 22 10 40 -2z m50 6 c0
-3 -4 -8 -10 -11 -5 -3 -10 -1 -10 4 0 6 5 11 10 11 6 0 10 -2 10 -4z m140 -5
c0 -6 -5 -13 -12 -17 -6 -4 -8 -3 -4 4 3 5 0 13 -6 15 -8 3 -6 6 5 6 9 1 17
-3 17 -8z m-240 -11 c0 -6 -10 -15 -22 -20 -33 -13 -75 -60 -55 -60 9 0 19 9
22 20 6 20 25 28 25 12 0 -15 -38 -44 -52 -39 -7 2 -20 -2 -30 -10 -11 -10
-18 -11 -23 -4 -3 6 -1 11 6 11 6 0 22 11 35 25 22 24 22 25 4 25 -11 0 -20
-7 -20 -15 0 -8 -9 -19 -20 -25 -15 -8 -19 -18 -16 -33 3 -12 3 -16 0 -9 -11
24 -84 1 -84 -27 0 -26 -65 -70 -92 -63 -5 1 -8 -3 -8 -9 0 -5 -5 -7 -11 -4
-5 4 -18 -3 -28 -14 -20 -23 -40 -29 -21 -6 6 8 9 19 6 24 -4 6 3 15 16 22
l22 12 -23 18 c-18 15 -19 19 -7 19 9 0 16 5 16 10 0 16 50 36 58 23 5 -7 12
-6 22 5 13 14 12 15 -3 9 -32 -12 -17 9 18 26 31 15 35 15 43 1 8 -15 10 -15
15 0 4 10 3 15 -3 11 -6 -3 -10 -2 -10 3 0 15 77 43 96 35 11 -4 15 -3 10 5
-4 7 9 14 36 20 59 13 78 14 78 2z m162 -20 c-9 -12 -17 -24 -17 -28 0 -4 -11
-19 -24 -32 -22 -24 -23 -24 -12 -2 6 12 16 22 21 22 5 0 7 7 3 16 -5 12 -7
13 -14 2 -6 -10 -10 -10 -19 0 -5 6 -7 10 -3 7 3 -3 15 3 26 12 11 10 17 12
13 6 -4 -7 -2 -13 3 -13 6 0 11 7 11 15 0 8 7 15 15 15 12 0 12 -3 -3 -20z
m-152 -5 c-8 -9 -9 -15 -2 -15 6 0 14 5 17 10 4 6 11 8 16 4 5 -3 6 -10 3 -16
-4 -6 1 -8 12 -4 13 4 23 -1 32 -14 7 -12 8 -20 2 -20 -5 0 -10 4 -10 8 0 5
-25 14 -56 21 -50 12 -54 14 -37 27 24 18 39 18 23 -1z m70 1 c-7 -7 -14 -6
-21 1 -9 9 -7 12 9 10 14 -1 18 -5 12 -11z m130 -1 c0 -7 -30 -13 -34 -7 -3 4
4 9 15 9 10 1 19 0 19 -2z m33 -10 c-3 -9 -8 -14 -10 -11 -3 3 -2 9 2 15 9 16
15 13 8 -4z m102 -15 c-3 -5 -12 -10 -18 -10 -7 0 -6 4 3 10 19 12 23 12 15 0z
m-329 -13 c24 9 -35 -50 -74 -74 -18 -10 -14 -5 11 16 20 18 37 37 37 43 0 7
-10 2 -23 -10 -13 -12 -28 -22 -34 -22 -6 0 -21 -12 -32 -27 -11 -16 -21 -22
-21 -14 0 11 -3 11 -15 1 -9 -7 -15 -8 -15 -2 0 5 12 15 28 21 52 22 82 42 93
63 8 14 13 17 18 9 5 -7 15 -9 27 -4z m39 -17 c-3 -5 -11 -10 -16 -10 -6 0 -7
5 -4 10 3 6 11 10 16 10 6 0 7 -4 4 -10z m25 -15 c0 -13 -37 -23 -51 -13 -12
8 -11 9 2 5 9 -3 22 -1 30 4 16 10 19 11 19 4z m-248 -47 c-7 -7 -12 -8 -12
-2 0 14 12 26 19 19 2 -3 -1 -11 -7 -17z m273 12 c-3 -5 -12 -10 -18 -10 -7 0
-6 4 3 10 19 12 23 12 15 0z m-295 -20 c0 -5 -4 -10 -10 -10 -5 0 -10 5 -10
10 0 6 5 10 10 10 6 0 10 -4 10 -10z m405 0 c-3 -5 -12 -10 -18 -10 -7 0 -6 4
3 10 19 12 23 12 15 0z m-271 -15 c-4 -8 -11 -15 -16 -15 -6 0 -5 6 2 15 7 8
14 15 16 15 2 0 1 -7 -2 -15z m-354 -15 c0 -5 -5 -10 -11 -10 -5 0 -7 5 -4 10
3 6 8 10 11 10 2 0 4 -4 4 -10z m212 -22 c-16 -16 -25 -19 -33 -11 -8 8 -7 13
2 18 8 5 10 4 5 -3 -4 -7 -3 -12 2 -12 6 0 12 7 16 15 3 8 11 15 18 15 7 0 3
-9 -10 -22z m53 -8 c-3 -5 -14 -8 -25 -7 -24 2 -18 12 9 14 12 1 19 -2 16 -7z
m29 -6 c3 -8 2 -12 -4 -9 -6 3 -10 10 -10 16 0 14 7 11 14 -7z m-129 -26 c-8
-5 -12 -15 -9 -21 4 -7 4 -9 -1 -5 -4 4 -15 2 -24 -4 -9 -7 -5 0 8 14 14 17
20 31 15 40 -6 10 -3 9 10 -1 15 -13 16 -15 1 -23z m-38 7 c0 -8 -3 -13 -5
-10 -3 3 -17 -5 -31 -17 l-25 -23 25 32 c27 36 36 40 36 18z m213 -11 c0 -8
-19 -13 -24 -6 -3 5 1 9 9 9 8 0 15 -2 15 -3z m-291 -31 c-13 -16 -25 -30 -26
-32 -2 -2 -3 1 -3 7 0 11 39 52 49 52 2 0 -6 -12 -20 -27z m-56 2 c4 -8 1 -17
-5 -21 -7 -4 -8 -3 -4 4 4 7 2 12 -4 12 -6 0 -8 5 -5 10 8 14 12 13 18 -5z
m-63 -25 c0 -5 -5 -10 -11 -10 -5 0 -7 5 -4 10 3 6 8 10 11 10 2 0 4 -4 4 -10z"/>
<path d="M863 2235 c0 -8 4 -15 9 -15 4 0 8 4 8 9 0 6 -4 12 -8 15 -5 3 -9 -1
-9 -9z"/>
<path d="M825 2218 c-11 -6 -23 -16 -26 -21 -4 -5 -19 -7 -33 -5 -21 4 -24 3
-15 -8 9 -11 8 -14 -4 -14 -8 0 -17 -5 -19 -10 -2 -6 -13 -12 -25 -13 -12 0
-20 -4 -17 -8 2 -4 -3 -10 -12 -13 -12 -4 -15 -2 -10 9 3 8 1 15 -3 15 -5 0
-12 -7 -15 -15 -10 -26 21 -28 59 -5 19 12 35 19 35 15 0 -3 6 -1 13 4 65 54
77 62 77 49 0 -8 5 -6 11 5 14 24 9 28 -16 15z"/>
<path d="M720 2124 c-7 -8 -19 -14 -26 -14 -8 0 -14 -8 -13 -17 0 -11 3 -13 6
-5 2 6 9 10 14 6 5 -3 9 0 9 6 0 6 3 9 8 6 4 -2 15 2 25 9 15 10 15 14 3 18
-8 3 -20 -1 -26 -9z"/>
<path d="M2206 1648 c-8 -13 -22 -49 -31 -80 -9 -32 -23 -64 -31 -72 -7 -8
-42 -24 -78 -36 -76 -25 -91 -40 -100 -100 -6 -43 -5 -47 31 -82 57 -54 98
-71 152 -64 25 4 67 9 94 13 45 5 47 7 47 37 0 46 -17 147 -46 273 -14 62 -23
117 -19 123 3 5 4 10 1 10 -3 0 -12 -10 -20 -22z"/>
<path d="M1800 1410 c8 -5 20 -10 25 -10 6 0 3 5 -5 10 -8 5 -19 10 -25 10 -5
0 -3 -5 5 -10z"/>
<path d="M136 1402 c-7 -12 -26 -204 -21 -212 3 -4 31 -1 62 6 32 8 85 14 118
14 69 0 157 21 162 37 3 7 -5 21 -16 32 -16 16 -34 21 -74 21 -54 0 -63 5
-148 71 -39 30 -75 44 -83 31z"/>
<path d="M310 1186 c0 -2 27 -20 60 -39 74 -44 78 -40 8 8 -48 32 -68 41 -68
31z"/>
<path d="M2109 1143 c-13 -16 -12 -17 4 -4 9 7 17 15 17 17 0 8 -8 3 -21 -13z"/>
<path d="M1126 1120 c-27 -33 -34 -56 -59 -185 -8 -44 -25 -106 -37 -138 -50
-132 -229 -351 -353 -432 -32 -21 -56 -43 -54 -49 2 -6 43 -31 92 -56 l88 -45
136 142 c75 77 150 148 168 157 39 20 132 21 176 2 18 -7 94 -77 169 -155 119
-125 140 -142 160 -136 37 11 150 73 180 98 l27 22 -83 71 c-190 165 -323 340
-434 574 -30 63 -64 125 -75 138 -30 32 -70 29 -101 -8z"/>
<path d="M460 1085 c13 -14 26 -25 28 -25 3 0 -5 11 -18 25 -13 14 -26 25 -28
25 -3 0 5 -11 18 -25z"/>
<path d="M1420 996 c0 -18 61 -122 143 -245 65 -97 122 -167 198 -243 59 -60
113 -108 121 -108 7 0 31 18 53 41 l40 40 -75 67 c-41 37 -127 116 -190 177
-63 61 -154 148 -202 195 -49 46 -88 80 -88 76z"/>
<path d="M889 903 c-35 -31 -131 -123 -214 -203 -82 -80 -172 -164 -199 -185
l-49 -40 54 -47 c29 -27 56 -48 59 -48 28 0 279 248 323 317 37 60 117 263
103 263 -7 0 -41 -26 -77 -57z"/>
<path d="M1125 381 c-44 -21 -222 -195 -208 -204 27 -17 177 -37 278 -37 102
0 234 12 274 26 19 6 -165 203 -206 221 -44 18 -90 16 -138 -6z"/>
</g>
</svg>
